<svg width="802" height="112" viewBox="0 0 802 112" fill="none" xmlns="http://www.w3.org/2000/svg">
<g clip-path="url(#clip0_2_79)">
<mask id="mask0_2_79" style="mask-type:luminance" maskUnits="userSpaceOnUse" x="558" y="0" width="244" height="112">
<path d="M802 0H558V112H802V0Z" fill="white"/>
</mask>
<g mask="url(#mask0_2_79)">
<path d="M642.286 0C644.737 0 646.727 2.01014 646.727 4.48437V17.9156C646.727 20.0844 648.253 21.8989 650.28 22.3125L651.168 22.4H664.468C666.918 22.4 668.909 24.4102 668.909 26.8845V40.3155C668.909 42.7898 670.9 44.8 673.35 44.8H686.65C689.1 44.8 691.091 46.8102 691.091 49.2845V62.7155C691.091 64.8843 692.617 66.6989 694.644 67.1124L695.532 67.2H708.832C711.282 67.2 713.273 69.2102 713.273 71.6845V85.1155C713.273 87.2843 714.798 89.0989 716.825 89.5124L717.714 89.6H753.196C755.646 89.6 757.636 87.5898 757.636 85.1155V71.6845C757.636 69.2102 759.627 67.2 762.077 67.2H775.377C777.828 67.2 779.818 65.1898 779.818 62.7155V49.2845C779.818 46.8102 781.808 44.8 784.259 44.8H797.559C800.01 44.8 802 46.8102 802 49.2845V62.7155C802 65.1898 800.01 67.2 797.559 67.2H784.259C781.808 67.2 779.818 69.2102 779.818 71.6845V85.1155C779.818 87.5898 777.828 89.6 775.377 89.6H762.077C759.627 89.6 757.636 91.6102 757.636 94.0845V107.516C757.636 109.99 755.646 112 753.196 112H717.714C717.411 112 717.111 111.971 716.825 111.912C714.798 111.499 713.273 109.684 713.273 107.516V94.0845C713.273 91.6102 711.282 89.6 708.832 89.6H695.532C693.082 89.6 691.091 87.5898 691.091 85.1155V71.6845C691.091 69.2102 689.1 67.2 686.65 67.2H673.35C670.9 67.2 668.909 65.1898 668.909 62.7155V49.2845C668.909 46.8102 666.918 44.8 664.468 44.8H651.168C648.718 44.8 646.727 42.7898 646.727 40.3155V26.8845C646.727 24.4102 644.737 22.4 642.286 22.4H606.804C604.354 22.4 602.364 24.4102 602.364 26.8845V40.3155C602.364 42.7898 600.373 44.8 597.923 44.8H584.623C582.172 44.8 580.182 46.8102 580.182 49.2845V62.7155C580.182 65.1898 578.191 67.2 575.741 67.2H562.441C559.991 67.2 558 65.1898 558 62.7155V49.2845C558 46.8102 559.991 44.8 562.441 44.8H575.741C578.191 44.8 580.182 42.7898 580.182 40.3155V26.8845C580.182 24.4102 582.172 22.4 584.623 22.4H597.923C600.373 22.4 602.364 20.3899 602.364 17.9156V4.48437C602.364 2.01014 604.354 0 606.804 0H642.286Z" fill="white"/>
</g>
<mask id="mask1_2_79" style="mask-type:luminance" maskUnits="userSpaceOnUse" x="0" y="23" width="199" height="55">
<path d="M199 23H0V78H199V23Z" fill="white"/>
</mask>
<g mask="url(#mask1_2_79)">
<path d="M68.7455 23H39.8C37.8017 23 36.1818 24.6416 36.1818 26.6667V37.6667C36.1818 39.6917 37.8017 41.3333 39.8 41.3333H68.7455C70.7437 41.3333 72.3636 39.6917 72.3636 37.6667V26.6667C72.3636 24.6416 70.7437 23 68.7455 23Z" fill="white"/>
<path d="M50.6545 59.6667H3.61818C1.61992 59.6667 0 61.3083 0 63.3334V74.3334C0 76.3584 1.61992 78 3.61818 78H50.6545C52.6528 78 54.2727 76.3584 54.2727 74.3334V63.3334C54.2727 61.3083 52.6528 59.6667 50.6545 59.6667Z" fill="white"/>
<path d="M180.909 23C190.901 23 199 31.2081 199 41.3333V59.6667C199 69.7918 190.901 78 180.909 78H94.0763C92.078 78 90.4545 76.3548 90.4545 74.3297V26.6702C90.4545 24.6452 92.078 23 94.0763 23H180.909ZM170.945 32.1667V68.8333H179.99C184.987 68.8333 189.036 64.7292 189.036 59.6667V41.3333C189.036 36.2707 184.987 32.1667 179.99 32.1667H170.945Z" fill="white"/>
</g>
<path d="M223.26 78.6C219.94 78.6 216.98 77.88 214.38 76.44C211.82 75 209.78 73.04 208.26 70.56C206.78 68.08 206.04 65.24 206.04 62.04C206.04 58.84 206.78 56 208.26 53.52C209.78 51.04 211.82 49.08 214.38 47.64C216.98 46.2 219.94 45.48 223.26 45.48C226.58 45.48 229.52 46.2 232.08 47.64C234.68 49.08 236.72 51.04 238.2 53.52C239.68 56 240.42 58.84 240.42 62.04C240.42 65.24 239.68 68.08 238.2 70.56C236.72 73.04 234.68 75 232.08 76.44C229.52 77.88 226.58 78.6 223.26 78.6ZM223.26 70.32C224.7 70.32 225.98 69.96 227.1 69.24C228.22 68.52 229.1 67.54 229.74 66.3C230.38 65.06 230.68 63.64 230.64 62.04C230.68 60.44 230.38 59.02 229.74 57.78C229.1 56.5 228.22 55.5 227.1 54.78C225.98 54.06 224.7 53.7 223.26 53.7C221.82 53.7 220.52 54.06 219.36 54.78C218.24 55.5 217.36 56.5 216.72 57.78C216.08 59.02 215.78 60.44 215.82 62.04C215.78 63.64 216.08 65.06 216.72 66.3C217.36 67.54 218.24 68.52 219.36 69.24C220.52 69.96 221.82 70.32 223.26 70.32ZM246.698 91.2V46.14H255.818L256.178 53.28L254.378 52.74C254.658 51.42 255.338 50.22 256.418 49.14C257.498 48.06 258.858 47.2 260.498 46.56C262.178 45.88 263.938 45.54 265.778 45.54C268.498 45.54 270.918 46.26 273.038 47.7C275.158 49.1 276.818 51.04 278.018 53.52C279.258 55.96 279.878 58.8 279.878 62.04C279.878 65.24 279.258 68.08 278.018 70.56C276.818 73.04 275.138 75 272.978 76.44C270.858 77.84 268.418 78.54 265.658 78.54C263.858 78.54 262.138 78.2 260.498 77.52C258.858 76.84 257.478 75.92 256.358 74.76C255.238 73.6 254.498 72.34 254.138 70.98L256.358 70.14V91.2H246.698ZM263.318 70.44C264.758 70.44 266.018 70.1 267.098 69.42C268.178 68.7 269.018 67.72 269.618 66.48C270.218 65.24 270.518 63.76 270.518 62.04C270.518 60.36 270.218 58.9 269.618 57.66C269.018 56.38 268.178 55.4 267.098 54.72C266.058 54 264.798 53.64 263.318 53.64C261.838 53.64 260.558 53.98 259.478 54.66C258.398 55.34 257.558 56.32 256.958 57.6C256.358 58.88 256.058 60.36 256.058 62.04C256.058 63.76 256.358 65.24 256.958 66.48C257.558 67.72 258.398 68.7 259.478 69.42C260.558 70.1 261.838 70.44 263.318 70.44ZM286.248 91.2V46.14H295.368L295.728 53.28L293.928 52.74C294.208 51.42 294.888 50.22 295.968 49.14C297.048 48.06 298.408 47.2 300.048 46.56C301.728 45.88 303.488 45.54 305.328 45.54C308.048 45.54 310.468 46.26 312.588 47.7C314.708 49.1 316.368 51.04 317.568 53.52C318.808 55.96 319.428 58.8 319.428 62.04C319.428 65.24 318.808 68.08 317.568 70.56C316.368 73.04 314.688 75 312.528 76.44C310.408 77.84 307.968 78.54 305.208 78.54C303.408 78.54 301.688 78.2 300.048 77.52C298.408 76.84 297.028 75.92 295.908 74.76C294.788 73.6 294.048 72.34 293.688 70.98L295.908 70.14V91.2H286.248ZM302.868 70.44C304.308 70.44 305.568 70.1 306.648 69.42C307.728 68.7 308.568 67.72 309.168 66.48C309.768 65.24 310.068 63.76 310.068 62.04C310.068 60.36 309.768 58.9 309.168 57.66C308.568 56.38 307.728 55.4 306.648 54.72C305.608 54 304.348 53.64 302.868 53.64C301.388 53.64 300.108 53.98 299.028 54.66C297.948 55.34 297.108 56.32 296.508 57.6C295.908 58.88 295.608 60.36 295.608 62.04C295.608 63.76 295.908 65.24 296.508 66.48C297.108 67.72 297.948 68.7 299.028 69.42C300.108 70.1 301.388 70.44 302.868 70.44ZM325.859 78V33.6H335.459V78H325.859ZM358.616 78.6C355.096 78.6 352.036 77.9 349.436 76.5C346.836 75.06 344.816 73.12 343.376 70.68C341.936 68.2 341.216 65.38 341.216 62.22C341.216 59.78 341.616 57.54 342.416 55.5C343.216 53.46 344.336 51.7 345.776 50.22C347.216 48.7 348.916 47.54 350.876 46.74C352.876 45.9 355.056 45.48 357.416 45.48C359.656 45.48 361.696 45.88 363.536 46.68C365.416 47.48 367.036 48.6 368.396 50.04C369.756 51.48 370.796 53.18 371.516 55.14C372.236 57.1 372.556 59.24 372.476 61.56L372.416 64.14H347.036L345.656 58.74H364.616L363.596 59.88V58.68C363.516 57.68 363.196 56.8 362.636 56.04C362.116 55.24 361.416 54.62 360.536 54.18C359.656 53.74 358.656 53.52 357.536 53.52C355.976 53.52 354.636 53.84 353.516 54.48C352.436 55.08 351.616 55.98 351.056 57.18C350.496 58.34 350.216 59.78 350.216 61.5C350.216 63.26 350.576 64.8 351.296 66.12C352.056 67.4 353.136 68.4 354.536 69.12C355.976 69.84 357.676 70.2 359.636 70.2C360.996 70.2 362.196 70 363.236 69.6C364.316 69.2 365.476 68.52 366.716 67.56L371.216 73.92C369.976 75 368.656 75.88 367.256 76.56C365.856 77.24 364.416 77.74 362.936 78.06C361.496 78.42 360.056 78.6 358.616 78.6ZM378.592 78V46.14H387.712L388.132 56.52L386.332 54.54C386.812 52.82 387.592 51.28 388.672 49.92C389.792 48.56 391.092 47.48 392.572 46.68C394.052 45.88 395.632 45.48 397.312 45.48C398.032 45.48 398.692 45.54 399.292 45.66C399.932 45.78 400.512 45.92 401.032 46.08L398.392 56.7C397.952 56.42 397.352 56.2 396.592 56.04C395.872 55.84 395.112 55.74 394.312 55.74C393.432 55.74 392.612 55.9 391.852 56.22C391.092 56.5 390.452 56.92 389.932 57.48C389.412 58.04 388.992 58.7 388.672 59.46C388.392 60.22 388.252 61.08 388.252 62.04V78H378.592ZM419.549 78.6C416.229 78.6 413.269 77.88 410.669 76.44C408.109 75 406.069 73.04 404.549 70.56C403.069 68.08 402.329 65.24 402.329 62.04C402.329 58.84 403.069 56 404.549 53.52C406.069 51.04 408.109 49.08 410.669 47.64C413.269 46.2 416.229 45.48 419.549 45.48C422.869 45.48 425.809 46.2 428.369 47.64C430.969 49.08 433.009 51.04 434.489 53.52C435.969 56 436.709 58.84 436.709 62.04C436.709 65.24 435.969 68.08 434.489 70.56C433.009 73.04 430.969 75 428.369 76.44C425.809 77.88 422.869 78.6 419.549 78.6ZM419.549 70.32C420.989 70.32 422.269 69.96 423.389 69.24C424.509 68.52 425.389 67.54 426.029 66.3C426.669 65.06 426.969 63.64 426.929 62.04C426.969 60.44 426.669 59.02 426.029 57.78C425.389 56.5 424.509 55.5 423.389 54.78C422.269 54.06 420.989 53.7 419.549 53.7C418.109 53.7 416.809 54.06 415.649 54.78C414.529 55.5 413.649 56.5 413.009 57.78C412.369 59.02 412.069 60.44 412.109 62.04C412.069 63.64 412.369 65.06 413.009 66.3C413.649 67.54 414.529 68.52 415.649 69.24C416.809 69.96 418.109 70.32 419.549 70.32ZM451.888 78L438.568 46.14H449.188L457.108 69.96L454.768 70.2L462.928 46.14H473.428L459.448 78H451.888ZM489.317 78.54C486.637 78.54 484.237 77.84 482.117 76.44C480.037 75 478.377 73.04 477.137 70.56C475.897 68.04 475.277 65.2 475.277 62.04C475.277 58.8 475.897 55.94 477.137 53.46C478.377 50.98 480.077 49.04 482.237 47.64C484.397 46.2 486.857 45.48 489.617 45.48C491.137 45.48 492.517 45.7 493.757 46.14C495.037 46.58 496.157 47.2 497.117 48C498.077 48.76 498.897 49.66 499.577 50.7C500.257 51.7 500.757 52.78 501.077 53.94L499.097 53.7V46.14H508.637V78H498.917V70.32L501.077 70.26C500.757 71.38 500.237 72.44 499.517 73.44C498.797 74.44 497.917 75.32 496.877 76.08C495.837 76.84 494.677 77.44 493.397 77.88C492.117 78.32 490.757 78.54 489.317 78.54ZM491.957 70.44C493.437 70.44 494.717 70.1 495.797 69.42C496.877 68.74 497.717 67.78 498.317 66.54C498.917 65.26 499.217 63.76 499.217 62.04C499.217 60.32 498.917 58.84 498.317 57.6C497.717 56.32 496.877 55.34 495.797 54.66C494.717 53.94 493.437 53.58 491.957 53.58C490.517 53.58 489.257 53.94 488.177 54.66C487.137 55.34 486.317 56.32 485.717 57.6C485.117 58.84 484.817 60.32 484.817 62.04C484.817 63.76 485.117 65.26 485.717 66.54C486.317 67.78 487.137 68.74 488.177 69.42C489.257 70.1 490.517 70.44 491.957 70.44Z" fill="white"/>
</g>
<defs>
<clipPath id="clip0_2_79">
<rect width="802" height="112" fill="white"/>
</clipPath>
</defs>
</svg>
