<svg width="244" height="242" viewBox="0 0 244 242" fill="none" xmlns="http://www.w3.org/2000/svg">
<g clip-path="url(#clip0_61_131)">
<path d="M84.2865 130C86.7367 130 88.7273 132.01 88.7273 134.484V147.916C88.7273 150.084 90.2529 151.899 92.2799 152.313L93.1681 152.4H106.468C108.918 152.4 110.909 154.41 110.909 156.884V170.316C110.909 172.79 112.9 174.8 115.35 174.8H128.65C131.1 174.8 133.091 176.81 133.091 179.284V192.716C133.091 194.884 134.617 196.699 136.644 197.112L137.532 197.2H150.832C153.282 197.2 155.273 199.21 155.273 201.684V215.116C155.273 217.284 156.798 219.099 158.825 219.512L159.714 219.6H195.196C197.646 219.6 199.636 217.59 199.636 215.116V201.684C199.636 199.21 201.627 197.2 204.077 197.2H217.377C219.828 197.2 221.818 195.19 221.818 192.716V179.284C221.818 176.81 223.808 174.8 226.259 174.8H239.559C242.01 174.8 244 176.81 244 179.284V192.716C244 195.19 242.01 197.2 239.559 197.2H226.259C223.808 197.2 221.818 199.21 221.818 201.684V215.116C221.818 217.59 219.828 219.6 217.377 219.6H204.077C201.627 219.6 199.636 221.61 199.636 224.084V237.516C199.636 239.99 197.646 242 195.196 242H159.714C159.411 242 159.111 241.971 158.825 241.912C156.798 241.499 155.273 239.684 155.273 237.516V224.084C155.273 221.61 153.282 219.6 150.832 219.6H137.532C135.081 219.6 133.091 217.59 133.091 215.116V201.684C133.091 199.21 131.1 197.2 128.65 197.2H115.35C112.9 197.2 110.909 195.19 110.909 192.716V179.284C110.909 176.81 108.918 174.8 106.468 174.8H93.1681C90.7179 174.8 88.7273 172.79 88.7273 170.316V156.884C88.7273 154.41 86.7367 152.4 84.2865 152.4H48.8044C46.3542 152.4 44.3636 154.41 44.3636 156.884V170.316C44.3636 172.79 42.373 174.8 39.9228 174.8H26.6226C24.1724 174.8 22.1818 176.81 22.1818 179.284V192.716C22.1818 195.19 20.1913 197.2 17.7411 197.2H4.44069C1.99056 197.2 0 195.19 0 192.716V179.284C0 176.81 1.99056 174.8 4.44069 174.8H17.7411C20.1913 174.8 22.1818 172.79 22.1818 170.316V156.884C22.1818 154.41 24.1724 152.4 26.6226 152.4H39.9228C42.373 152.4 44.3636 150.39 44.3636 147.916V134.484C44.3636 132.01 46.3542 130 48.8044 130H84.2865Z" fill="white"/>
</g>
<g clip-path="url(#clip1_61_131)">
<path d="M124.501 48.6104L104.034 28.1429C102.621 26.7299 100.314 26.7453 98.8826 28.1772L91.1044 35.9554C89.6725 37.3873 89.6571 39.6936 91.0701 41.1065L111.538 61.5741C112.951 62.9871 115.257 62.9717 116.689 61.5398L124.467 53.7616C125.899 52.3297 125.914 50.0234 124.501 48.6104Z" fill="white"/>
<path d="M85.7818 61.7454L52.5221 28.4857C51.1091 27.0727 48.8028 27.088 47.3709 28.52L39.5927 36.2981C38.1608 37.7301 38.1455 40.0363 39.5584 41.4493L72.8182 74.709C74.2312 76.122 76.5374 76.1067 77.9693 74.6748L85.7475 66.8966C87.1794 65.4647 87.1948 63.1584 85.7818 61.7454Z" fill="white"/>
<path d="M203.813 127.922C210.878 134.987 210.801 146.518 203.641 153.678L190.678 166.642C183.518 173.801 171.987 173.878 164.922 166.813L103.522 105.413C102.109 104 102.124 101.689 103.556 100.257L137.257 66.5563C138.689 65.1244 141 65.109 142.413 66.5221L203.813 127.922ZM190.285 127.358L164.358 153.285L170.754 159.682C174.287 163.215 180.052 163.175 183.632 159.596L196.596 146.632C200.175 143.052 200.214 137.287 196.681 133.754L190.285 127.358Z" fill="white"/>
</g>
<defs>
<clipPath id="clip0_61_131">
<rect width="244" height="112" fill="white" transform="translate(0 130)"/>
</clipPath>
<clipPath id="clip1_61_131">
<rect width="199" height="55" fill="white" transform="translate(75.8909) rotate(45)"/>
</clipPath>
</defs>
</svg>
